HIERARCHY
ROOT mixamorig:Hips
{
	OFFSET 0.000000 201.639420 0.000000
	CHANNELS 6 Xposition Yposition Zposition Xrotation Yrotation Zrotation
	JOINT mixamorig:Spine
	{
		OFFSET 0.006200 19.524994 -2.481800
		CHANNELS 3 Xrotation Yrotation Zrotation
		JOINT mixamorig:Spine1
		{
			OFFSET -0.000900 22.835007 -2.825400
			CHANNELS 3 Xrotation Yrotation Zrotation
			JOINT mixamorig:Spine2
			{
				OFFSET -0.020600 26.552490 -3.193300
				CHANNELS 3 Xrotation Yrotation Zrotation
				JOINT mixamorig:Neck
				{
					OFFSET -0.060000 30.701813 1.352200
					CHANNELS 3 Xrotation Yrotation Zrotation
					JOINT mixamorig:Head
					{
						OFFSET -0.087200 22.547607 3.670900
						CHANNELS 3 Xrotation Yrotation Zrotation
						JOINT mixamorig:HeadTop_End
						{
							OFFSET -0.830600 40.355194 7.893500
							CHANNELS 3 Xrotation Yrotation Zrotation
							End Site
							{
								OFFSET 0.000000 30.592346 0.000000
							}
						}
						JOINT mixamorig:RightEye
						{
							OFFSET -6.302100 18.118591 16.197100
							CHANNELS 3 Xrotation Yrotation Zrotation
							End Site
							{
								OFFSET 0.000000 30.592346 0.000000
							}
						}
						JOINT mixamorig:LeftEye
						{
							OFFSET 6.741500 18.382690 16.401899
							CHANNELS 3 Xrotation Yrotation Zrotation
							End Site
							{
								OFFSET 0.000000 30.592346 0.000000
							}
						}
					}
				}
				JOINT mixamorig:LeftShoulder
				{
					OFFSET 11.924900 18.230499 1.425400
					CHANNELS 3 Xrotation Yrotation Zrotation
					JOINT mixamorig:LeftArm
					{
						OFFSET 25.435989 -0.697632 -5.229300
						CHANNELS 3 Xrotation Yrotation Zrotation
						JOINT mixamorig:LeftForeArm
						{
							OFFSET 54.684776 0.000000 0.000000
							CHANNELS 3 Xrotation Yrotation Zrotation
							JOINT mixamorig:LeftHand
							{
								OFFSET 55.098175 0.000000 0.000000
								CHANNELS 3 Xrotation Yrotation Zrotation
								JOINT mixamorig:LeftHandMiddle1
								{
									OFFSET 23.369751 0.000000 0.000000
									CHANNELS 3 Xrotation Yrotation Zrotation
									JOINT mixamorig:LeftHandMiddle2
									{
										OFFSET 6.378677 0.000000 0.000000
										CHANNELS 3 Xrotation Yrotation Zrotation
										JOINT mixamorig:LeftHandMiddle3
										{
											OFFSET 6.148331 0.000000 0.000000
											CHANNELS 3 Xrotation Yrotation Zrotation
											JOINT mixamorig:LeftHandMiddle4
											{
												OFFSET 6.582504 0.000000 0.000000
												CHANNELS 3 Xrotation Yrotation Zrotation
												End Site
												{
													OFFSET -1.168900 6.395691 1.028606
												}
											}
										}
									}
								}
								JOINT mixamorig:LeftHandThumb1
								{
									OFFSET 7.235672 -3.848206 5.434273
									CHANNELS 3 Xrotation Yrotation Zrotation
									JOINT mixamorig:LeftHandThumb2
									{
										OFFSET 6.568451 -3.792297 3.792300
										CHANNELS 3 Xrotation Yrotation Zrotation
										JOINT mixamorig:LeftHandThumb3
										{
											OFFSET 6.063080 -3.500519 3.500518
											CHANNELS 3 Xrotation Yrotation Zrotation
											JOINT mixamorig:LeftHandThumb4
											{
												OFFSET 4.793182 -2.767334 2.767349
												CHANNELS 3 Xrotation Yrotation Zrotation
												End Site
												{
													OFFSET 0.101639 6.054260 1.275483
												}
											}
										}
									}
								}
								JOINT mixamorig:LeftHandIndex1
								{
									OFFSET 23.101074 -0.309540 4.992809
									CHANNELS 3 Xrotation Yrotation Zrotation
									JOINT mixamorig:LeftHandIndex2
									{
										OFFSET 6.226883 0.000000 0.000000
										CHANNELS 3 Xrotation Yrotation Zrotation
										JOINT mixamorig:LeftHandIndex3
										{
											OFFSET 6.094330 0.000000 0.000000
											CHANNELS 3 Xrotation Yrotation Zrotation
											JOINT mixamorig:LeftHandIndex4
											{
												OFFSET 5.482605 0.000000 0.000000
												CHANNELS 3 Xrotation Yrotation Zrotation
												End Site
												{
													OFFSET -1.427902 5.233032 0.797164
												}
											}
										}
									}
								}
								JOINT mixamorig:LeftHandRing1
								{
									OFFSET 22.299240 0.021149 -3.964172
									CHANNELS 3 Xrotation Yrotation Zrotation
									JOINT mixamorig:LeftHandRing2
									{
										OFFSET 6.321869 0.000000 0.000000
										CHANNELS 3 Xrotation Yrotation Zrotation
										JOINT mixamorig:LeftHandRing3
										{
											OFFSET 5.899796 0.000000 0.000000
											CHANNELS 3 Xrotation Yrotation Zrotation
											JOINT mixamorig:LeftHandRing4
											{
												OFFSET 6.517899 0.000000 0.000000
												CHANNELS 3 Xrotation Yrotation Zrotation
												End Site
												{
													OFFSET -1.637299 6.232208 0.980890
												}
											}
										}
									}
								}
								JOINT mixamorig:LeftHandPinky1
								{
									OFFSET 20.463791 -0.302338 -8.562233
									CHANNELS 3 Xrotation Yrotation Zrotation
									JOINT mixamorig:LeftHandPinky2
									{
										OFFSET 6.908646 0.000000 0.000000
										CHANNELS 3 Xrotation Yrotation Zrotation
										JOINT mixamorig:LeftHandPinky3
										{
											OFFSET 4.622849 0.000000 0.000000
											CHANNELS 3 Xrotation Yrotation Zrotation
											JOINT mixamorig:LeftHandPinky4
											{
												OFFSET 5.216080 0.000000 0.000000
												CHANNELS 3 Xrotation Yrotation Zrotation
												End Site
												{
													OFFSET -0.606308 5.116241 0.814926
												}
											}
										}
									}
								}
							}
						}
					}
				}
				JOINT mixamorig:RightShoulder
				{
					OFFSET -12.001300 18.284088 1.348900
					CHANNELS 3 Xrotation Yrotation Zrotation
					JOINT mixamorig:RightArm
					{
						OFFSET -25.308500 -0.751312 -5.164599
						CHANNELS 3 Xrotation Yrotation Zrotation
						JOINT mixamorig:RightForeArm
						{
							OFFSET -54.684429 0.000000 0.000000
							CHANNELS 3 Xrotation Yrotation Zrotation
							JOINT mixamorig:RightHand
							{
								OFFSET -55.150291 0.000000 0.000000
								CHANNELS 3 Xrotation Yrotation Zrotation
								JOINT mixamorig:RightHandMiddle1
								{
									OFFSET -23.317566 0.000000 0.000000
									CHANNELS 3 Xrotation Yrotation Zrotation
									JOINT mixamorig:RightHandMiddle2
									{
										OFFSET -6.378403 0.000000 0.000000
										CHANNELS 3 Xrotation Yrotation Zrotation
										JOINT mixamorig:RightHandMiddle3
										{
											OFFSET -6.148193 0.000000 0.000000
											CHANNELS 3 Xrotation Yrotation Zrotation
											JOINT mixamorig:RightHandMiddle4
											{
												OFFSET -6.583389 0.000000 0.000000
												CHANNELS 3 Xrotation Yrotation Zrotation
												End Site
												{
													OFFSET 1.171692 6.395905 1.029786
												}
											}
										}
									}
								}
								JOINT mixamorig:RightHandThumb1
								{
									OFFSET -7.190521 -3.860474 5.435846
									CHANNELS 3 Xrotation Yrotation Zrotation
									JOINT mixamorig:RightHandThumb2
									{
										OFFSET -6.567429 -3.791718 3.791708
										CHANNELS 3 Xrotation Yrotation Zrotation
										JOINT mixamorig:RightHandThumb3
										{
											OFFSET -6.062469 -3.500153 3.500166
											CHANNELS 3 Xrotation Yrotation Zrotation
											JOINT mixamorig:RightHandThumb4
											{
												OFFSET -4.792618 -2.767029 2.767022
												CHANNELS 3 Xrotation Yrotation Zrotation
												End Site
												{
													OFFSET -0.100327 6.053253 1.276754
												}
											}
										}
									}
								}
								JOINT mixamorig:RightHandIndex1
								{
									OFFSET -23.048981 -0.310791 4.992554
									CHANNELS 3 Xrotation Yrotation Zrotation
									JOINT mixamorig:RightHandIndex2
									{
										OFFSET -6.227539 0.000000 0.000000
										CHANNELS 3 Xrotation Yrotation Zrotation
										JOINT mixamorig:RightHandIndex3
										{
											OFFSET -6.095047 0.000000 0.000000
											CHANNELS 3 Xrotation Yrotation Zrotation
											JOINT mixamorig:RightHandIndex4
											{
												OFFSET -5.484772 0.000000 0.000000
												CHANNELS 3 Xrotation Yrotation Zrotation
												End Site
												{
													OFFSET 1.420593 5.237305 0.797056
												}
											}
										}
									}
								}
								JOINT mixamorig:RightHandRing1
								{
									OFFSET -22.246323 0.020569 -3.963762
									CHANNELS 3 Xrotation Yrotation Zrotation
									JOINT mixamorig:RightHandRing2
									{
										OFFSET -6.322128 0.000000 0.000000
										CHANNELS 3 Xrotation Yrotation Zrotation
										JOINT mixamorig:RightHandRing3
										{
											OFFSET -5.900024 0.000000 0.000000
											CHANNELS 3 Xrotation Yrotation Zrotation
											JOINT mixamorig:RightHandRing4
											{
												OFFSET -6.518356 0.000000 0.000000
												CHANNELS 3 Xrotation Yrotation Zrotation
												End Site
												{
													OFFSET 1.636398 6.232697 0.982186
												}
											}
										}
									}
								}
								JOINT mixamorig:RightHandPinky1
								{
									OFFSET -20.411011 -0.303314 -8.561701
									CHANNELS 3 Xrotation Yrotation Zrotation
									JOINT mixamorig:RightHandPinky2
									{
										OFFSET -6.907349 0.000000 0.000000
										CHANNELS 3 Xrotation Yrotation Zrotation
										JOINT mixamorig:RightHandPinky3
										{
											OFFSET -4.623840 0.000000 0.000000
											CHANNELS 3 Xrotation Yrotation Zrotation
											JOINT mixamorig:RightHandPinky4
											{
												OFFSET -5.218353 0.000000 0.000000
												CHANNELS 3 Xrotation Yrotation Zrotation
												End Site
												{
													OFFSET 0.602097 5.118835 0.816273
												}
											}
										}
									}
								}
							}
						}
					}
				}
			}
		}
	}
	JOINT mixamorig:LeftUpLeg
	{
		OFFSET 18.168400 -13.561905 -0.039000
		CHANNELS 3 Xrotation Yrotation Zrotation
		JOINT mixamorig:LeftLeg
		{
			OFFSET 0.577358 -80.825211 -3.695000
			CHANNELS 3 Xrotation Yrotation Zrotation
			JOINT mixamorig:LeftFoot
			{
				OFFSET -0.577356 -83.370262 -6.520700
				CHANNELS 3 Xrotation Yrotation Zrotation
				JOINT mixamorig:LeftToeBase
				{
					OFFSET 0.750401 -20.798306 25.135401
					CHANNELS 3 Xrotation Yrotation Zrotation
					JOINT mixamorig:LeftToe_End
					{
						OFFSET -0.000500 0.001200 19.917799
						CHANNELS 3 Xrotation Yrotation Zrotation
						End Site
						{
							OFFSET 0.000000 19.917805 0.000000
						}
					}
				}
			}
		}
	}
	JOINT mixamorig:RightUpLeg
	{
		OFFSET -18.162500 -13.585098 -0.041000
		CHANNELS 3 Xrotation Yrotation Zrotation
		JOINT mixamorig:RightLeg
		{
			OFFSET -0.595024 -80.945297 -3.631900
			CHANNELS 3 Xrotation Yrotation Zrotation
			JOINT mixamorig:RightFoot
			{
				OFFSET 0.595024 -83.218193 -6.561200
				CHANNELS 3 Xrotation Yrotation Zrotation
				JOINT mixamorig:RightToeBase
				{
					OFFSET -0.753601 -20.807106 25.115000
					CHANNELS 3 Xrotation Yrotation Zrotation
					JOINT mixamorig:RightToe_End
					{
						OFFSET 0.000299 0.001700 19.918200
						CHANNELS 3 Xrotation Yrotation Zrotation
						End Site
						{
							OFFSET 0.000000 19.918203 0.000000
						}
					}
				}
			}
		}
	}
}
MOTION
Frames: 4
Frame Time: 0.033333
-10.276702 59.226578 -183.028625 -113.093938 11.932253 4.678257 9.410620 -0.554979 1.082279 19.974982 -0.672502 4.594509 19.996122 -0.594865 4.528879 -13.686568 32.846373 -9.531142 -25.293210 10.949980 -3.621257 -0.000002 0.000002 0.000001 -0.000002 0.000002 0.000001 -0.000002 0.000002 0.000001 0.076660 -0.984111 9.139572 10.106702 -3.295006 2.622649 22.650159 -49.575255 13.392240 8.123405 20.223225 18.024101 -5.129834 8.363472 -18.680847 0.337943 1.883651 -20.340428 0.298387 1.773357 -19.100725 -0.000000 -0.000000 -0.000001 -62.401906 14.483823 -8.152807 -19.190195 26.770860 19.310970 3.335137 3.978353 20.948334 0.000000 0.000001 -0.000002 6.684324 -14.930715 -16.728120 -4.433135 2.827127 -27.126776 -10.158767 -0.741767 -15.892045 0.000000 -0.000002 -0.000003 -9.689942 14.186719 -24.347295 1.599094 3.840653 -45.197230 0.136695 1.209577 -12.894759 -0.000002 0.000001 -0.000002 -15.032189 29.608515 -32.072014 1.427260 3.662357 -42.571193 0.599460 2.476936 -27.206382 -0.000001 0.000002 -0.000000 -0.164301 -4.337560 -1.571233 6.938854 -19.044722 -23.061546 -65.819951 25.792234 49.335385 -13.922242 19.882394 54.181900 0.839691 -11.457764 46.313863 0.808415 -2.846505 31.703283 0.687153 -2.640395 29.170368 -0.000001 -0.000002 -0.000002 17.200383 7.798891 27.795419 1.757810 -9.464226 -6.344919 -2.689006 -2.165544 -8.355890 0.000001 -0.000000 0.000000 6.493728 9.303040 39.919420 0.311967 -1.804000 19.446947 0.691354 -0.768940 28.191351 -0.000001 0.000002 -0.000002 -9.638181 -6.128103 28.250176 6.905638 -4.552722 40.609607 -2.714907 -8.706531 16.633146 -0.000001 0.000002 0.000005 -3.140888 -20.798397 37.389521 0.754027 -2.756663 30.590863 1.331781 -3.555846 41.054819 0.000000 0.000003 -0.000000 -26.068150 16.953166 38.540459 44.587308 -3.927645 -8.735964 19.124120 -9.209591 -9.660002 -2.319027 -12.916718 -1.584239 -0.000000 -0.000002 0.000002 -17.268253 -18.503998 -25.852828 30.657779 1.304459 0.883257 10.193548 2.843103 9.023149 -2.975307 9.676653 12.437628 -0.000000 -0.000000 0.000001 
-10.393149 52.720520 -186.777634 -112.695785 12.262301 5.047567 14.190645 -0.399102 2.016550 22.179702 0.025510 4.805719 22.308187 -0.187056 4.384291 -13.495165 36.946604 -17.316942 -26.400104 12.519613 -3.155451 0.000001 0.000000 -0.000001 0.000001 0.000000 -0.000001 0.000001 0.000000 -0.000001 0.231025 -1.335030 6.651083 6.923052 12.996761 0.189699 20.602569 -54.345814 12.954383 7.337268 20.137923 14.425899 -4.976294 7.773441 -17.502445 0.280343 1.720401 -18.508957 0.297413 1.770554 -19.069386 0.000002 -0.000001 0.000000 -65.815908 14.509644 -9.043369 -19.949570 26.928291 19.371547 3.287084 3.708082 20.930903 0.000001 -0.000000 0.000000 6.505867 -15.557742 -16.083593 -4.484934 3.203280 -26.892499 -10.279815 -0.372504 -15.946827 -0.000000 0.000001 -0.000002 -9.526139 14.051882 -24.126397 1.602352 3.843886 -45.245813 0.128679 1.173992 -12.509036 0.000000 0.000001 0.000001 -14.992364 30.460922 -31.838251 1.453099 3.690240 -42.974317 0.582263 2.443215 -26.805603 -0.000001 -0.000001 0.000001 -0.782239 -6.336171 -4.617466 10.081352 -32.413288 -8.472423 -51.775310 30.272539 43.219996 -22.617628 26.749961 49.123684 1.012625 -11.422348 46.579971 0.793840 -2.822825 31.408758 0.697496 -2.658813 29.394269 0.000001 -0.000003 -0.000003 14.834078 16.507748 30.338222 1.852240 -10.074974 -6.372861 -2.222213 -3.116949 -8.136356 0.000003 -0.000000 0.000002 7.404897 11.726623 35.902510 0.311973 -1.803980 19.446947 0.574125 -0.553375 25.583976 -0.000001 -0.000004 0.000002 -8.304683 -5.333380 32.016853 7.282100 -4.537386 40.544720 -2.812206 -8.611304 17.121116 -0.000001 0.000001 -0.000001 -3.607292 -20.225846 37.294202 0.754042 -2.756633 30.590874 1.331778 -3.555841 41.054799 -0.000001 -0.000002 0.000000 -34.411111 17.877400 37.459373 46.219767 0.695858 -8.920389 21.668201 -9.024210 -5.056755 -2.319079 -12.916748 -1.584274 -0.000000 0.000000 0.000001 -24.018331 -15.668215 -26.805552 31.194539 -0.765564 0.572412 14.057272 4.492865 7.823694 -2.975300 9.676653 12.437631 -0.000000 -0.000000 -0.000001 
-10.447587 45.701813 -189.132477 -111.934909 13.104826 5.209162 17.250975 -0.171403 2.705854 23.415196 0.976450 4.610650 23.669018 0.259424 3.802008 -11.548813 37.974301 -19.927345 -26.739391 13.277451 -3.088031 -0.000000 0.000002 0.000001 -0.000000 0.000002 0.000001 -0.000000 0.000002 0.000001 0.469623 -3.268854 6.704434 7.031627 22.136047 -3.716834 15.306978 -51.280299 8.248194 8.151130 15.438270 7.771272 -4.850537 7.495298 -19.017758 0.251467 1.631664 -17.521879 0.297331 1.770306 -19.066579 -0.000002 -0.000002 0.000002 -66.120090 14.514920 -9.127642 -20.017498 26.942291 19.377129 3.282779 3.683883 20.929337 -0.000001 0.000004 -0.000001 6.490577 -15.614205 -16.026062 -4.489721 3.236902 -26.871293 -10.290600 -0.339460 -15.951599 -0.000002 0.000001 -0.000001 -9.511394 14.039968 -24.106622 1.602634 3.844175 -45.250177 0.127969 1.170810 -12.474530 0.000001 0.000000 0.000001 -14.988896 30.537175 -31.817002 1.455427 3.692724 -43.010446 0.580737 2.440216 -26.769895 -0.000002 -0.000003 -0.000000 -1.075064 -6.909806 -6.572557 19.694555 -32.573828 11.867620 -34.537958 23.226396 26.825843 -25.426352 32.939533 43.213128 1.173944 -11.388963 46.827692 0.780250 -2.800490 31.131668 0.707298 -2.676130 29.604912 0.000002 -0.000003 0.000002 13.865018 19.316772 30.044780 1.134372 -7.642673 -6.272397 -2.171317 -3.171370 -7.944471 -0.000005 -0.000000 0.000001 8.824690 12.102203 31.841819 0.311968 -1.803994 19.446947 0.440515 -0.271792 22.274357 0.000002 0.000003 -0.000003 -7.404530 -9.156741 39.856900 7.683007 -4.529166 40.482852 -2.856447 -8.498423 17.359117 -0.000002 -0.000002 0.000002 -4.189577 -19.505369 37.181962 0.754025 -2.756644 30.590860 1.331788 -3.555842 41.054799 0.000001 -0.000001 0.000000 -40.804032 19.021553 34.869250 44.628722 4.837740 -8.052201 24.979160 -8.354555 0.445078 -2.319043 -12.916733 -1.584252 0.000000 -0.000002 -0.000000 -30.119341 -13.093002 -28.025969 32.782500 -0.390162 0.558113 17.408791 5.725263 7.260600 -2.975301 9.676653 12.437628 0.000000 -0.000000 0.000000 
-10.532277 38.662827 -190.294144 -110.918618 13.981180 5.310097 18.035492 -0.081582 2.799053 23.609438 1.363987 4.602205 23.911043 0.342354 3.690010 -8.252484 37.367354 -18.672475 -25.135009 13.106871 -3.555400 0.000000 -0.000001 -0.000001 0.000000 -0.000001 -0.000001 0.000000 -0.000001 -0.000001 0.637190 -4.607191 6.889596 8.088705 23.761760 -8.029465 17.042493 -41.270376 8.232399 8.182846 8.329311 -0.996360 -4.954845 6.257649 -9.682191 0.248973 1.623736 -17.433945 0.143039 1.236969 -13.192036 -0.000001 0.000001 -0.000000 -66.120083 14.514908 -9.127636 -20.144422 24.959185 18.892081 3.282781 3.683890 20.929329 0.000001 -0.000002 -0.000000 6.516583 -15.764176 -13.686860 -4.628966 2.856240 -22.903779 -10.330475 -0.770666 -12.010054 0.000000 -0.000003 -0.000001 -9.633115 12.876396 -14.697375 1.288440 3.505568 -40.350989 0.047938 0.719333 -7.625632 0.000000 0.000001 -0.000002 -15.423547 28.629126 -21.222614 0.858916 2.926594 -32.706183 0.357676 1.936040 -20.932604 0.000000 -0.000002 0.000000 -0.985392 -6.620986 -6.658990 32.598188 -21.625619 27.632097 -38.815562 11.584225 15.007923 -14.840114 28.882944 30.591680 1.320138 -11.358101 47.052101 0.767963 -2.780055 30.879316 0.716293 -2.691859 29.796786 0.000004 -0.000001 0.000004 13.964010 17.901639 27.273509 1.057726 -7.365702 -6.250608 -1.874380 -3.760176 -7.739266 -0.000003 -0.000003 -0.000005 10.395143 11.013332 27.520938 0.311961 -1.803988 19.446937 0.319837 0.029036 18.826537 0.000001 0.000001 -0.000003 -6.849403 -13.400262 44.745816 7.942413 -4.540517 40.416521 -2.836524 -8.390453 17.493351 0.000000 0.000000 0.000001 -4.785896 -18.761203 37.074823 0.754039 -2.756641 30.590853 1.331782 -3.555840 41.054802 0.000001 -0.000000 0.000001 -44.763065 19.019546 31.166437 41.144305 8.515065 -7.112368 27.789617 -7.098039 5.398278 -2.319029 -12.916720 -1.584238 -0.000000 -0.000000 0.000001 -32.060758 -12.367908 -28.473582 29.200001 1.346437 -0.008578 22.145878 6.099385 8.007867 -2.975344 9.676652 12.437641 -0.000000 0.000000 0.000000 
